<?xml version="1.0" encoding="UTF-8" standalone="no"?>
<svg
   xmlns:dc="http://purl.org/dc/elements/1.1/"
   xmlns:cc="http://creativecommons.org/ns#"
   xmlns:rdf="http://www.w3.org/1999/02/22-rdf-syntax-ns#"
   xmlns:svg="http://www.w3.org/2000/svg"
   xmlns="http://www.w3.org/2000/svg"
   viewBox="0 0 816 1056"
   height="460"
   width="340"
   xml:space="preserve"
   id="svg2"
   version="1.1"><metadata
     id="metadata8"><rdf:RDF><cc:Work
         rdf:about=""><dc:format>image/svg+xml</dc:format><dc:type
           rdf:resource="http://purl.org/dc/dcmitype/StillImage" /></cc:Work></rdf:RDF></metadata><defs
     id="defs6"><clipPath
       id="clipPath18"
       clipPathUnits="userSpaceOnUse"><path
         id="path16"
         d="M 0,792 H 612 V 0 H 0 Z" /></clipPath><clipPath
       id="clipPath26"
       clipPathUnits="userSpaceOnUse"><path
         id="path24"
         d="M 189.307,427.638 H 426.402 V 366.63 H 189.307 Z" /></clipPath></defs><g
     transform="matrix(1.3333333,0,0,-1.3333333,0,1056)"
     id="g10"><g
       id="g12"><g
         clip-path="url(#clipPath18)"
         id="g14"><g
           id="g20"><g
             id="g22" /><g
             id="g146"><g
               style="opacity:0.30000299"
               id="g144"
               clip-path="url(#clipPath26)"><g
                 id="g30"
                 transform="translate(362.8835,383.9054)"><path
                   id="path28"
                   style="fill:#2a3c90;fill-opacity:1;fill-rule:nonzero;stroke:none"
                   d="M 0,0 -0.033,-0.029 C 0.05,0.144 0.132,0.316 0.214,0.488 L 0.195,0.464 C 0.293,0.658 0.391,0.851 0.49,1.045 0.485,1.118 0.496,1.187 0.522,1.25 h 0.714 v 3.366 l 0.06,0.516 C 1.315,5.303 1.334,5.474 1.353,5.645 1.358,6.292 1.362,6.939 1.367,7.586 1.422,7.641 1.529,7.702 1.524,7.749 1.366,9.183 1.209,10.617 1.006,12.043 0.993,12.136 0.621,12.168 0.417,12.229 l 0.021,0.013 c -0.148,0.346 -0.296,0.692 -0.444,1.038 -1.479,3.032 -3.505,5.471 -6.48,6.746 -4.735,2.029 -9.111,0.926 -13.149,-2.135 -5.505,-4.172 -6.517,-13.275 -3.751,-18.075 2.588,-4.493 9.422,-7.812 13.994,-6.522 3.67,1.035 6.996,2.789 9.218,6.387 C -0.116,-0.213 -0.058,-0.106 0,0 m 5.935,-6.261 c -1.536,-2.516 -3.54,-4.432 -5.993,-5.848 -6.035,-3.484 -14.408,-4.267 -19.25,-1.643 -6.515,3.531 -11.297,8.707 -13.028,16.676 -0.343,1.579 -0.393,3.269 -0.37,4.905 0.152,10.547 8.874,20.185 18.253,21.081 8.119,0.776 14.864,-2.304 20.014,-9.23 1.887,-2.538 2.947,-5.611 3.008,-8.9 C 8.627,7.63 8.394,4.469 8.204,1.319 8.136,0.195 7.819,-0.912 7.616,-2.027 7.574,-2.199 7.532,-2.372 7.489,-2.545 7.348,-2.958 7.206,-3.371 7.064,-3.784 6.994,-3.952 6.924,-4.12 6.853,-4.288 L 6.848,-4.301 C 6.747,-4.541 6.647,-4.782 6.547,-5.022 6.475,-5.058 6.441,-5.118 6.444,-5.204 6.274,-5.556 6.105,-5.909 5.935,-6.261" /></g><g
                 id="g34"
                 transform="translate(345.7459,397.1901)"><path
                   id="path32"
                   style="fill:#2a3c90;fill-opacity:1;fill-rule:nonzero;stroke:none"
                   d="m 0,0 c -1.468,-1.563 -2.138,-3.521 -2.393,-5.7 -0.215,-1.831 0.145,-3.506 1.042,-5.055 1.125,-1.942 2.8,-3.097 4.761,-3.697 6.265,-1.917 9.845,2.358 9.615,8.426 C 12.827,-0.825 7.712,2.216 3.618,1.542 2.63,1.379 1.674,0.983 0.703,0.694 0.148,1.003 0.069,0.925 0,0 M 18.504,-5.699 C 18.5,-6.346 18.495,-6.993 18.491,-7.639 18.472,-7.811 18.452,-7.982 18.433,-8.153 l -0.06,-0.516 c -0.238,-1.122 -0.475,-2.244 -0.713,-3.366 -0.027,-0.063 -0.038,-0.131 -0.033,-0.206 -0.098,-0.194 -0.196,-0.387 -0.295,-0.58 0,0 0.02,0.025 0.02,0.024 -0.082,-0.172 -0.164,-0.344 -0.247,-0.516 l 0.033,0.028 c -0.058,-0.107 -0.117,-0.213 -0.175,-0.319 -2.221,-3.597 -5.547,-5.352 -9.217,-6.387 -4.572,-1.289 -11.406,2.029 -13.995,6.522 -2.766,4.801 -1.754,13.903 3.752,18.076 4.038,3.06 8.414,4.164 13.148,2.134 2.976,-1.275 5.002,-3.713 6.481,-6.745 0.148,-0.347 0.295,-0.693 0.443,-1.039 0,0 -0.021,-0.013 -0.021,-0.013 0.317,-1.547 0.634,-3.095 0.95,-4.643" /></g><g
                 id="g38"
                 transform="translate(364.2502,391.4911)"><path
                   id="path36"
                   style="fill:#2a3c90;fill-opacity:1;fill-rule:nonzero;stroke:none"
                   d="M 0,0 C -0.317,1.548 -0.633,3.096 -0.95,4.643 -0.745,4.583 -0.374,4.551 -0.361,4.458 -0.158,3.031 0,1.597 0.157,0.164 0.162,0.117 0.055,0.055 0,0" /></g><g
                 id="g42"
                 transform="translate(363.4055,385.1552)"><path
                   id="path40"
                   style="fill:#2a3c90;fill-opacity:1;fill-rule:nonzero;stroke:none"
                   d="M 0,0 C 0.238,1.122 0.476,2.244 0.714,3.366 V 0 Z" /></g><g
                 id="g46"
                 transform="translate(363.3211,396.1472)"><path
                   id="path44"
                   style="fill:#2a3c90;fill-opacity:1;fill-rule:nonzero;stroke:none"
                   d="M 0,0 C -0.148,0.346 -0.295,0.692 -0.443,1.038 -0.295,0.692 -0.148,0.346 0,0" /></g><g
                 id="g50"
                 transform="translate(364.1791,389.0371)"><path
                   id="path48"
                   style="fill:#2a3c90;fill-opacity:1;fill-rule:nonzero;stroke:none"
                   d="M 0,0 C 0.019,0.171 0.038,0.342 0.058,0.514 0.038,0.342 0.019,0.171 0,0" /></g><g
                 id="g54"
                 transform="translate(363.0781,384.3693)"><path
                   id="path52"
                   style="fill:#2a3c90;fill-opacity:1;fill-rule:nonzero;stroke:none"
                   d="M 0,0 C 0.099,0.193 0.197,0.386 0.295,0.58 0.197,0.387 0.098,0.194 0,0" /></g><g
                 id="g58"
                 transform="translate(362.851,383.8768)"><path
                   id="path56"
                   style="fill:#2a3c90;fill-opacity:1;fill-rule:nonzero;stroke:none"
                   d="M 0,0 C 0.082,0.172 0.165,0.344 0.247,0.517 0.165,0.345 0.082,0.172 0,0" /></g><g
                 id="g62"
                 transform="translate(362.7091,383.5863)"><path
                   id="path60"
                   style="fill:#2a3c90;fill-opacity:1;fill-rule:nonzero;stroke:none"
                   d="M 0,0 C 0.058,0.106 0.116,0.212 0.174,0.319 0.116,0.213 0.058,0.106 0,0" /></g><g
                 id="g66"
                 transform="translate(350.9261,393.5493)"><path
                   id="path64"
                   style="fill:#2a3c90;fill-opacity:1;fill-rule:nonzero;stroke:none"
                   d="m 0,0 c -1.534,-0.009 -2.845,-1.387 -2.865,-3.011 -0.02,-1.685 1.308,-3.148 2.869,-3.161 1.663,-0.013 2.992,1.407 2.966,3.17 C 2.944,-1.3 1.648,0.01 0,0 m -4.477,4.335 c 0.97,0.289 1.926,0.685 2.915,0.847 4.094,0.674 9.209,-2.366 9.407,-7.567 0.23,-6.068 -3.35,-10.343 -9.616,-8.426 -1.961,0.6 -3.635,1.755 -4.76,3.697 -0.897,1.548 -1.257,3.224 -1.042,5.055 0.255,2.178 0.925,4.137 2.393,5.7 0.234,0.231 0.468,0.462 0.703,0.694" /></g><g
                 id="g70"
                 transform="translate(346.4487,397.8839)"><path
                   id="path68"
                   style="fill:#2a3c90;fill-opacity:1;fill-rule:nonzero;stroke:none"
                   d="M 0,0 C -0.234,-0.231 -0.469,-0.462 -0.703,-0.694 -0.634,0.231 -0.555,0.309 0,0" /></g><g
                 id="g74"
                 transform="translate(350.9261,393.5493)"><path
                   id="path72"
                   style="fill:#2a3c90;fill-opacity:1;fill-rule:nonzero;stroke:none"
                   d="M 0,0 C 1.648,0.01 2.944,-1.3 2.97,-3.002 2.996,-4.765 1.667,-6.185 0.004,-6.172 -1.557,-6.159 -2.885,-4.696 -2.865,-3.011 -2.845,-1.387 -1.534,-0.009 0,0" /></g><g
                 id="g78"
                 transform="translate(287.2983,383.4701)"><path
                   id="path76"
                   style="fill:#2a3c90;fill-opacity:1;fill-rule:nonzero;stroke:none"
                   d="m 0,0 c 2.257,-3.656 5.637,-5.439 9.366,-6.49 4.647,-1.311 11.591,2.062 14.222,6.627 2.811,4.878 1.782,14.128 -3.812,18.368 -4.104,3.11 -8.551,4.232 -13.362,2.17 -3.024,-1.296 -5.082,-3.774 -6.586,-6.855 -0.15,-0.352 -0.3,-0.704 -0.45,-1.056 L -0.6,12.751 C -0.809,12.69 -1.186,12.657 -1.199,12.563 -1.405,11.113 -1.566,9.656 -1.726,8.199 -1.731,8.151 -1.622,8.089 -1.566,8.033 -1.561,7.376 -1.557,6.718 -1.552,6.061 -1.533,5.887 -1.513,5.713 -1.494,5.539 -1.473,5.364 -1.453,5.189 -1.433,5.015 V 1.594 h 0.725 c 0.027,-0.064 0.038,-0.133 0.033,-0.208 0.1,-0.197 0.2,-0.394 0.3,-0.59 l -0.02,0.025 C -0.311,0.646 -0.228,0.47 -0.144,0.295 L -0.177,0.324 C -0.118,0.216 -0.059,0.108 0,0 m -6.725,-4.964 c 0.003,0.087 -0.032,0.149 -0.105,0.185 -0.102,0.244 -0.204,0.488 -0.306,0.733 l -0.005,0.013 c -0.072,0.17 -0.144,0.341 -0.215,0.512 -0.144,0.419 -0.288,0.839 -0.432,1.259 -0.043,0.176 -0.086,0.351 -0.128,0.527 -0.207,1.133 -0.529,2.257 -0.598,3.4 -0.193,3.201 -0.43,6.413 -0.371,9.614 0.062,3.342 1.139,6.465 3.057,9.044 5.233,7.038 12.087,10.168 20.338,9.38 C 24.04,28.792 32.904,18.997 33.058,8.28 33.082,6.618 33.031,4.901 32.682,3.295 30.924,-4.802 26.064,-10.062 19.443,-13.65 c -4.92,-2.667 -13.429,-1.871 -19.561,1.669 -2.493,1.439 -4.529,3.386 -6.09,5.943 -0.173,0.358 -0.345,0.716 -0.517,1.074" /></g><g
                 id="g82"
                 transform="translate(303.8221,397.9992)"><path
                   id="path80"
                   style="fill:#2a3c90;fill-opacity:1;fill-rule:nonzero;stroke:none"
                   d="m 0,0 c -0.987,0.294 -1.958,0.696 -2.962,0.862 -4.161,0.684 -9.359,-2.405 -9.56,-7.691 -0.234,-6.166 3.405,-10.51 9.771,-8.562 1.993,0.609 3.695,1.783 4.838,3.757 0.911,1.573 1.277,3.276 1.059,5.136 -0.259,2.214 -0.94,4.204 -2.432,5.793 C 0.644,0.235 0.564,0.314 0,0 m -17.125,-1.778 -0.021,0.013 c 0.15,0.352 0.301,0.704 0.451,1.055 1.503,3.082 3.562,5.56 6.585,6.855 4.812,2.062 9.258,0.941 13.362,-2.169 5.594,-4.24 6.623,-13.49 3.812,-18.368 -2.631,-4.565 -9.575,-7.938 -14.221,-6.628 -3.729,1.052 -7.109,2.835 -9.367,6.491 -0.059,0.108 -0.118,0.215 -0.177,0.324 0,0 0.033,-0.029 0.033,-0.029 -0.084,0.175 -0.168,0.35 -0.251,0.525 0,0 0.02,-0.024 0.02,-0.024 -0.1,0.196 -0.2,0.392 -0.3,0.589 0.005,0.075 -0.006,0.145 -0.032,0.209 -0.242,1.14 -0.484,2.28 -0.726,3.42 -0.02,0.175 -0.04,0.35 -0.061,0.525 -0.019,0.174 -0.039,0.348 -0.058,0.522 -0.005,0.657 -0.009,1.314 -0.014,1.972 0.322,1.573 0.644,3.145 0.965,4.718" /></g><g
                 id="g86"
                 transform="translate(285.7322,391.5029)"><path
                   id="path84"
                   style="fill:#2a3c90;fill-opacity:1;fill-rule:nonzero;stroke:none"
                   d="M 0,0 C 0.322,1.573 0.643,3.146 0.965,4.718 0.758,4.657 0.38,4.624 0.367,4.53 0.161,3.081 0,1.623 -0.16,0.166 -0.165,0.119 -0.056,0.056 0,0" /></g><g
                 id="g90"
                 transform="translate(286.5906,385.0643)"><path
                   id="path88"
                   style="fill:#2a3c90;fill-opacity:1;fill-rule:nonzero;stroke:none"
                   d="M 0,0 C -0.242,1.14 -0.483,2.28 -0.725,3.42 V 0 Z" /></g><g
                 id="g94"
                 transform="translate(286.6764,396.2343)"><path
                   id="path92"
                   style="fill:#2a3c90;fill-opacity:1;fill-rule:nonzero;stroke:none"
                   d="M 0,0 C 0.15,0.352 0.3,0.704 0.45,1.055 0.3,0.704 0.15,0.352 0,0" /></g><g
                 id="g98"
                 transform="translate(285.8045,389.0091)"><path
                   id="path96"
                   style="fill:#2a3c90;fill-opacity:1;fill-rule:nonzero;stroke:none"
                   d="M 0,0 C -0.02,0.174 -0.039,0.348 -0.059,0.522 -0.039,0.348 -0.02,0.174 0,0" /></g><g
                 id="g102"
                 transform="translate(286.9233,384.2657)"><path
                   id="path100"
                   style="fill:#2a3c90;fill-opacity:1;fill-rule:nonzero;stroke:none"
                   d="M 0,0 C -0.1,0.196 -0.2,0.393 -0.3,0.589 -0.2,0.393 -0.1,0.197 0,0" /></g><g
                 id="g106"
                 transform="translate(287.1541,383.7653)"><path
                   id="path104"
                   style="fill:#2a3c90;fill-opacity:1;fill-rule:nonzero;stroke:none"
                   d="M 0,0 C -0.084,0.175 -0.168,0.35 -0.251,0.525 -0.167,0.35 -0.084,0.175 0,0" /></g><g
                 id="g110"
                 transform="translate(287.2983,383.4701)"><path
                   id="path108"
                   style="fill:#2a3c90;fill-opacity:1;fill-rule:nonzero;stroke:none"
                   d="M 0,0 C -0.059,0.108 -0.118,0.216 -0.177,0.324 -0.118,0.216 -0.059,0.108 0,0" /></g><g
                 id="g114"
                 transform="translate(296.2542,390.5442)"><path
                   id="path112"
                   style="fill:#2a3c90;fill-opacity:1;fill-rule:nonzero;stroke:none"
                   d="M 0,0 C -0.027,-1.792 1.324,-3.235 3.014,-3.221 4.6,-3.209 5.949,-1.722 5.929,-0.009 5.909,1.64 4.577,3.041 3.018,3.05 1.344,3.06 0.026,1.729 0,0 M 8.282,6.75 C 9.774,5.161 10.455,3.172 10.714,0.957 10.932,-0.903 10.566,-2.606 9.655,-4.179 8.512,-6.153 6.81,-7.327 4.817,-7.936 -1.55,-9.884 -5.188,-5.54 -4.954,0.626 -4.753,5.912 0.445,9.001 4.606,8.317 5.61,8.151 6.581,7.749 7.568,7.455 7.806,7.22 8.044,6.985 8.282,6.75" /></g><g
                 id="g118"
                 transform="translate(303.8221,397.9992)"><path
                   id="path116"
                   style="fill:#2a3c90;fill-opacity:1;fill-rule:nonzero;stroke:none"
                   d="M 0,0 C 0.238,-0.235 0.476,-0.47 0.714,-0.705 0.644,0.235 0.564,0.314 0,0" /></g><g
                 id="g122"
                 transform="translate(299.2721,393.5944)"><path
                   id="path120"
                   style="fill:#2a3c90;fill-opacity:1;fill-rule:nonzero;stroke:none"
                   d="m 0,0 c -1.674,0.01 -2.992,-1.321 -3.018,-3.05 -0.027,-1.792 1.324,-3.235 3.014,-3.222 1.586,0.013 2.935,1.5 2.915,3.213 C 2.891,-1.41 1.559,-0.01 0,0" /></g><g
                 id="g126"
                 transform="translate(220.6041,423.153)"><path
                   id="path124"
                   style="fill:#2a3c90;fill-opacity:1;fill-rule:nonzero;stroke:none"
                   d="m 0,0 -18.685,-36.23 h 37.271 z m -20.084,-38.979 -8.312,-16.189 c -0.936,-1.744 -3.643,-0.373 -2.708,1.46 L -1.407,3.658 c 0.281,0.551 0.844,0.827 1.407,0.827 0.555,0 1.027,-0.276 1.308,-0.827 l 29.788,-57.366 c 0.936,-1.833 -1.772,-3.204 -2.707,-1.46 l -8.312,16.189 z" /></g><g
                 id="g130"
                 transform="translate(261.3592,402.8439)"><path
                   id="path128"
                   style="fill:#2a3c90;fill-opacity:1;fill-rule:nonzero;stroke:none"
                   d="m 0,0 c 2.053,6.951 9.156,11.712 16.906,11.712 1.026,0 1.68,-0.552 1.68,-1.557 0,-1.006 -0.654,-1.558 -1.68,-1.558 C 4.951,8.597 0,-1.371 0,-12.449 v -21.136 c 0,-1.006 -0.745,-1.647 -1.589,-1.647 -1.027,0 -1.681,0.641 -1.681,1.647 v 43.74 c 0,0.819 0.654,1.557 1.681,1.557 0.844,0 1.589,-0.738 1.589,-1.557 z" /></g><g
                 id="g134"
                 transform="translate(318.8205,386.923)"><path
                   id="path132"
                   style="fill:#2a3c90;fill-opacity:1;fill-rule:nonzero;stroke:none"
                   d="m 0,0 v 7.957 c -0.373,6.682 -3.551,12.173 -9.719,15.101 -2.707,1.185 -5.415,1.736 -8.312,1.825 -7.94,0.097 -15.97,-4.023 -19.142,-11.614 -1.026,-2.384 -1.589,-5.312 -1.68,-7.965 -0.282,-7.047 2.144,-13.544 8.213,-18.297 3.27,-2.473 7.286,-3.844 11.491,-4.12 3.27,-0.089 6.35,0.641 9.43,2.012 C -3.551,-12.174 -0.373,-6.683 0,0 m -18.031,28.087 c 4.015,-0.089 7.848,-1.006 11.209,-2.928 3.08,-2.011 5.415,-4.85 6.822,-8.508 v 9.238 c 0,1.006 0.555,1.647 1.582,1.647 1.026,0 1.68,-0.641 1.68,-1.647 v -43.821 c 0,-1.006 -0.654,-1.647 -1.68,-1.647 -1.027,0 -1.582,0.641 -1.582,1.647 v 9.238 c -1.407,-3.658 -3.742,-6.497 -6.822,-8.508 -5.886,-3.383 -13.354,-4.21 -20.457,-1.371 -10.084,4.023 -15.126,13.082 -14.844,23.788 0.281,9.238 5.323,17.746 14.198,21.136 3.08,1.282 6.35,1.825 9.894,1.736" /></g><g
                 id="g138"
                 transform="translate(341.5396,371.8216)"><path
                   id="path136"
                   style="fill:#2a3c90;fill-opacity:1;fill-rule:nonzero;stroke:none"
                   d="m 0,0 c 3.08,-1.371 6.16,-2.101 9.43,-2.012 4.205,0.276 8.221,1.647 11.491,4.12 6.069,4.754 8.495,11.25 8.213,18.298 -0.091,2.652 -0.654,5.58 -1.681,7.964 C 24.282,35.962 16.252,40.082 8.312,39.985 5.415,39.895 2.707,39.344 0,38.16 -6.168,35.232 -9.339,29.741 -9.719,23.058 V 15.101 C -9.339,8.419 -6.168,2.928 0,0 M 18.206,41.452 C 27.081,38.063 32.123,29.555 32.404,20.316 32.686,9.611 27.644,0.551 17.552,-3.472 10.457,-6.31 2.989,-5.483 -2.897,-2.101 c -3.08,2.012 -5.415,4.85 -6.822,8.508 v -9.238 c 0,-1.006 -0.555,-1.647 -1.582,-1.647 -1.034,0 -1.68,0.641 -1.68,1.647 v 43.822 c 0,1.005 0.646,1.646 1.68,1.646 1.027,0 1.582,-0.641 1.582,-1.646 v -9.239 c 1.407,3.658 3.742,6.497 6.822,8.508 3.361,1.923 7.194,2.839 11.209,2.928 3.544,0.09 6.814,-0.454 9.894,-1.736" /></g><g
                 id="g142"
                 transform="translate(421.8289,426.2671)"><path
                   id="path140"
                   style="fill:#2a3c90;fill-opacity:1;fill-rule:nonzero;stroke:none"
                   d="M 0,0 C 1.589,1.371 3.924,-0.738 2.426,-2.108 L -25.408,-26.262 4.015,-56.368 c 1.681,-1.46 -0.844,-3.471 -2.243,-2.011 l -29.416,30.195 -12.426,-10.795 v -18.394 c 0,-0.82 -0.654,-1.461 -1.589,-1.461 -0.837,0 -1.582,0.641 -1.582,1.461 v 56.181 c 0,0.827 0.745,1.557 1.582,1.557 0.935,0 1.589,-0.73 1.589,-1.557 V -35.41 Z" /></g></g></g></g><g
           transform="translate(361.1528,385.6009)"
           id="g148"><path
             id="path150"
             style="fill:#3d55a5;fill-opacity:1;fill-rule:nonzero;stroke:none"
             d="M 0,0 -0.033,-0.029 C 0.05,0.144 0.132,0.316 0.214,0.488 L 0.195,0.464 C 0.293,0.658 0.391,0.851 0.49,1.045 0.485,1.118 0.496,1.187 0.522,1.25 h 0.714 v 3.366 l 0.06,0.516 C 1.315,5.303 1.334,5.474 1.353,5.645 1.358,6.292 1.362,6.939 1.367,7.586 1.422,7.641 1.529,7.702 1.524,7.75 1.366,9.183 1.209,10.617 1.006,12.043 0.993,12.136 0.621,12.168 0.417,12.229 l 0.021,0.013 -0.443,1.038 c -1.48,3.032 -3.506,5.471 -6.481,6.746 -4.735,2.029 -9.111,0.926 -13.149,-2.135 -5.505,-4.172 -6.517,-13.275 -3.751,-18.075 2.588,-4.493 9.422,-7.812 13.994,-6.522 3.67,1.035 6.996,2.789 9.218,6.387 C -0.116,-0.213 -0.058,-0.106 0,0 m 5.935,-6.261 c -1.536,-2.516 -3.54,-4.432 -5.993,-5.848 -6.035,-3.484 -14.408,-4.267 -19.25,-1.643 -6.515,3.531 -11.297,8.707 -13.028,16.676 -0.343,1.579 -0.393,3.269 -0.37,4.905 0.152,10.547 8.874,20.185 18.253,21.081 8.119,0.776 14.864,-2.304 20.014,-9.23 1.887,-2.538 2.947,-5.611 3.008,-8.9 C 8.627,7.63 8.394,4.469 8.204,1.32 8.136,0.195 7.819,-0.912 7.616,-2.027 7.574,-2.199 7.532,-2.372 7.489,-2.545 7.348,-2.958 7.206,-3.371 7.065,-3.784 6.994,-3.952 6.924,-4.12 6.853,-4.288 L 6.848,-4.301 C 6.747,-4.541 6.647,-4.782 6.547,-5.022 6.475,-5.057 6.441,-5.118 6.444,-5.204 6.274,-5.556 6.105,-5.909 5.935,-6.261" /></g><g
           transform="translate(344.0152,398.8856)"
           id="g152"><path
             id="path154"
             style="fill:#fafbfc;fill-opacity:1;fill-rule:nonzero;stroke:none"
             d="m 0,0 c -1.468,-1.563 -2.138,-3.521 -2.393,-5.7 -0.215,-1.831 0.145,-3.506 1.042,-5.055 1.125,-1.942 2.8,-3.097 4.761,-3.697 6.265,-1.917 9.845,2.358 9.615,8.426 C 12.827,-0.825 7.712,2.216 3.618,1.542 2.63,1.379 1.674,0.983 0.703,0.694 0.148,1.003 0.069,0.925 0,0 m 18.504,-5.699 -0.013,-1.94 c -0.019,-0.172 -0.039,-0.343 -0.058,-0.514 l -0.06,-0.516 c -0.238,-1.122 -0.475,-2.244 -0.713,-3.366 -0.027,-0.063 -0.038,-0.131 -0.033,-0.206 -0.098,-0.194 -0.196,-0.387 -0.295,-0.58 l 0.02,0.024 c -0.082,-0.172 -0.164,-0.344 -0.247,-0.516 0,0 0.033,0.028 0.033,0.028 -0.058,-0.107 -0.117,-0.213 -0.175,-0.319 -2.221,-3.597 -5.547,-5.352 -9.217,-6.387 -4.572,-1.289 -11.406,2.029 -13.995,6.522 -2.766,4.801 -1.754,13.903 3.752,18.076 4.038,3.06 8.414,4.164 13.148,2.134 2.976,-1.275 5.002,-3.713 6.481,-6.745 0.148,-0.347 0.295,-0.693 0.443,-1.039 l -0.021,-0.013 c 0.317,-1.547 0.634,-3.095 0.95,-4.643" /></g><g
           transform="translate(362.5195,393.1866)"
           id="g156"><path
             id="path158"
             style="fill:#3b529a;fill-opacity:1;fill-rule:nonzero;stroke:none"
             d="M 0,0 C -0.317,1.548 -0.633,3.096 -0.95,4.643 -0.745,4.583 -0.374,4.551 -0.361,4.458 -0.158,3.031 0,1.597 0.157,0.164 0.162,0.117 0.055,0.055 0,0" /></g><g
           transform="translate(361.6749,386.8506)"
           id="g160"><path
             id="path162"
             style="fill:#3b529a;fill-opacity:1;fill-rule:nonzero;stroke:none"
             d="M 0,0 C 0.238,1.122 0.476,2.244 0.714,3.366 V 0 Z" /></g><g
           transform="translate(361.5904,397.8427)"
           id="g164"><path
             id="path166"
             style="fill:#3b529a;fill-opacity:1;fill-rule:nonzero;stroke:none"
             d="M 0,0 C -0.148,0.346 -0.295,0.692 -0.443,1.038 -0.295,0.692 -0.148,0.346 0,0" /></g><g
           transform="translate(362.4484,390.7326)"
           id="g168"><path
             id="path170"
             style="fill:#3b529a;fill-opacity:1;fill-rule:nonzero;stroke:none"
             d="M 0,0 C 0.019,0.171 0.038,0.342 0.058,0.514 0.038,0.342 0.019,0.171 0,0" /></g><g
           transform="translate(361.3474,386.0648)"
           id="g172"><path
             id="path174"
             style="fill:#3b529a;fill-opacity:1;fill-rule:nonzero;stroke:none"
             d="M 0,0 C 0.099,0.193 0.197,0.386 0.295,0.58 0.197,0.387 0.098,0.194 0,0" /></g><g
           transform="translate(361.1203,385.5723)"
           id="g176"><path
             id="path178"
             style="fill:#3b529a;fill-opacity:1;fill-rule:nonzero;stroke:none"
             d="M 0,0 C 0.082,0.172 0.165,0.344 0.247,0.517 0.165,0.345 0.082,0.172 0,0" /></g><g
           transform="translate(360.9784,385.2818)"
           id="g180"><path
             id="path182"
             style="fill:#3b529a;fill-opacity:1;fill-rule:nonzero;stroke:none"
             d="M 0,0 C 0.058,0.106 0.116,0.212 0.174,0.319 0.116,0.213 0.058,0.106 0,0" /></g><g
           transform="translate(349.1955,395.2447)"
           id="g184"><path
             id="path186"
             style="fill:#95d7ec;fill-opacity:1;fill-rule:nonzero;stroke:none"
             d="m 0,0 c -1.534,-0.009 -2.845,-1.387 -2.865,-3.011 -0.02,-1.685 1.308,-3.148 2.869,-3.161 1.663,-0.013 2.992,1.407 2.966,3.17 C 2.944,-1.3 1.648,0.01 0,0 m -4.477,4.335 c 0.97,0.289 1.926,0.685 2.915,0.847 4.094,0.674 9.209,-2.366 9.407,-7.567 0.23,-6.068 -3.35,-10.343 -9.616,-8.426 -1.961,0.6 -3.635,1.755 -4.76,3.697 -0.897,1.548 -1.257,3.224 -1.042,5.055 0.255,2.178 0.925,4.137 2.393,5.7 0.234,0.231 0.468,0.462 0.703,0.694" /></g><g
           transform="translate(344.718,399.5794)"
           id="g188"><path
             id="path190"
             style="fill:#edf7f8;fill-opacity:1;fill-rule:nonzero;stroke:none"
             d="M 0,0 C -0.234,-0.231 -0.469,-0.462 -0.703,-0.694 -0.634,0.231 -0.555,0.309 0,0" /></g><g
           transform="translate(349.1955,395.2447)"
           id="g192"><path
             id="path194"
             style="fill:#0b0f11;fill-opacity:1;fill-rule:nonzero;stroke:none"
             d="M 0,0 C 1.648,0.01 2.944,-1.3 2.97,-3.002 2.996,-4.765 1.667,-6.185 0.004,-6.172 -1.557,-6.159 -2.885,-4.696 -2.865,-3.011 -2.845,-1.387 -1.534,-0.009 0,0" /></g><g
           transform="translate(285.5676,385.1656)"
           id="g196"><path
             id="path198"
             style="fill:#3d55a5;fill-opacity:1;fill-rule:nonzero;stroke:none"
             d="m 0,0 c 2.257,-3.656 5.637,-5.439 9.366,-6.49 4.647,-1.311 11.591,2.062 14.222,6.627 2.811,4.878 1.782,14.128 -3.812,18.368 -4.104,3.11 -8.551,4.232 -13.362,2.17 -3.024,-1.296 -5.082,-3.774 -6.586,-6.855 -0.15,-0.352 -0.3,-0.704 -0.45,-1.056 L -0.6,12.751 C -0.809,12.69 -1.186,12.657 -1.199,12.563 -1.405,11.113 -1.566,9.656 -1.726,8.199 -1.731,8.151 -1.622,8.089 -1.566,8.033 -1.561,7.376 -1.557,6.718 -1.552,6.061 -1.533,5.887 -1.513,5.713 -1.494,5.539 -1.473,5.364 -1.453,5.189 -1.433,5.015 V 1.594 h 0.725 c 0.027,-0.064 0.038,-0.133 0.033,-0.208 0.1,-0.197 0.2,-0.394 0.3,-0.59 l -0.02,0.025 C -0.311,0.645 -0.228,0.47 -0.144,0.295 L -0.177,0.324 C -0.118,0.216 -0.059,0.108 0,0 m -6.725,-4.964 c 0.003,0.087 -0.032,0.149 -0.105,0.185 -0.102,0.244 -0.204,0.488 -0.306,0.733 l -0.005,0.013 c -0.072,0.17 -0.144,0.341 -0.215,0.512 -0.144,0.419 -0.288,0.839 -0.432,1.259 -0.043,0.176 -0.086,0.351 -0.128,0.527 -0.207,1.133 -0.529,2.257 -0.598,3.4 -0.193,3.201 -0.43,6.413 -0.371,9.614 0.062,3.342 1.139,6.465 3.057,9.044 5.233,7.038 12.087,10.168 20.338,9.38 C 24.04,28.792 32.904,18.997 33.058,8.28 33.082,6.618 33.031,4.901 32.682,3.295 30.924,-4.802 26.064,-10.062 19.443,-13.65 c -4.92,-2.667 -13.429,-1.871 -19.561,1.669 -2.493,1.439 -4.529,3.386 -6.09,5.943 -0.173,0.358 -0.345,0.716 -0.517,1.074" /></g><g
           transform="translate(302.0914,399.6947)"
           id="g200"><path
             id="path202"
             style="fill:#fafbfc;fill-opacity:1;fill-rule:nonzero;stroke:none"
             d="m 0,0 c -0.987,0.294 -1.958,0.696 -2.962,0.862 -4.161,0.684 -9.359,-2.405 -9.56,-7.691 -0.234,-6.166 3.405,-10.51 9.771,-8.562 1.993,0.609 3.695,1.783 4.838,3.757 0.911,1.573 1.277,3.276 1.059,5.136 -0.259,2.214 -0.94,4.204 -2.432,5.793 C 0.644,0.235 0.564,0.314 0,0 m -17.125,-1.778 c 0.001,0 -0.021,0.013 -0.021,0.013 0.15,0.352 0.301,0.704 0.451,1.055 1.503,3.082 3.562,5.559 6.585,6.855 4.812,2.062 9.258,0.941 13.362,-2.169 5.594,-4.24 6.623,-13.49 3.812,-18.368 -2.631,-4.565 -9.575,-7.938 -14.221,-6.628 -3.729,1.052 -7.109,2.835 -9.367,6.491 -0.059,0.108 -0.118,0.215 -0.177,0.324 0,0 0.033,-0.029 0.033,-0.029 -0.084,0.175 -0.168,0.35 -0.251,0.525 l 0.02,-0.024 c -0.1,0.196 -0.2,0.392 -0.3,0.589 0.005,0.075 -0.006,0.145 -0.032,0.209 -0.242,1.14 -0.484,2.28 -0.726,3.42 -0.02,0.175 -0.04,0.35 -0.061,0.525 -0.019,0.174 -0.039,0.348 -0.058,0.522 -0.005,0.657 -0.009,1.314 -0.014,1.972 0.322,1.573 0.643,3.145 0.965,4.718" /></g><g
           transform="translate(284.0016,393.1984)"
           id="g204"><path
             id="path206"
             style="fill:#3b529a;fill-opacity:1;fill-rule:nonzero;stroke:none"
             d="M 0,0 C 0.322,1.573 0.643,3.146 0.965,4.718 0.758,4.657 0.38,4.624 0.367,4.53 0.161,3.081 0,1.623 -0.16,0.166 -0.165,0.119 -0.056,0.056 0,0" /></g><g
           transform="translate(284.8599,386.7598)"
           id="g208"><path
             id="path210"
             style="fill:#3b529a;fill-opacity:1;fill-rule:nonzero;stroke:none"
             d="M 0,0 C -0.242,1.14 -0.483,2.28 -0.725,3.42 V 0 Z" /></g><g
           transform="translate(284.9457,397.9298)"
           id="g212"><path
             id="path214"
             style="fill:#3b529a;fill-opacity:1;fill-rule:nonzero;stroke:none"
             d="M 0,0 C 0.15,0.352 0.3,0.704 0.45,1.055 0.3,0.704 0.15,0.352 0,0" /></g><g
           transform="translate(284.0738,390.7046)"
           id="g216"><path
             id="path218"
             style="fill:#3b529a;fill-opacity:1;fill-rule:nonzero;stroke:none"
             d="M 0,0 C -0.02,0.174 -0.039,0.348 -0.059,0.522 -0.039,0.348 -0.02,0.174 0,0" /></g><g
           transform="translate(285.1927,385.9612)"
           id="g220"><path
             id="path222"
             style="fill:#3b529a;fill-opacity:1;fill-rule:nonzero;stroke:none"
             d="M 0,0 C -0.1,0.196 -0.2,0.392 -0.3,0.589 -0.2,0.393 -0.1,0.197 0,0" /></g><g
           transform="translate(285.4235,385.4608)"
           id="g224"><path
             id="path226"
             style="fill:#3b529a;fill-opacity:1;fill-rule:nonzero;stroke:none"
             d="M 0,0 C -0.084,0.175 -0.168,0.35 -0.251,0.525 -0.167,0.35 -0.084,0.175 0,0" /></g><g
           transform="translate(285.5676,385.1656)"
           id="g228"><path
             id="path230"
             style="fill:#3b529a;fill-opacity:1;fill-rule:nonzero;stroke:none"
             d="M 0,0 C -0.059,0.108 -0.118,0.216 -0.177,0.324 -0.118,0.216 -0.059,0.108 0,0" /></g><g
           transform="translate(294.5235,392.2397)"
           id="g232"><path
             id="path234"
             style="fill:#95d7ec;fill-opacity:1;fill-rule:nonzero;stroke:none"
             d="M 0,0 C -0.027,-1.792 1.324,-3.235 3.014,-3.221 4.6,-3.209 5.949,-1.722 5.929,-0.009 5.909,1.641 4.577,3.041 3.018,3.05 1.344,3.06 0.026,1.729 0,0 M 8.282,6.75 C 9.774,5.161 10.455,3.172 10.714,0.958 10.932,-0.903 10.566,-2.606 9.655,-4.179 8.512,-6.152 6.81,-7.327 4.817,-7.936 -1.55,-9.884 -5.188,-5.54 -4.954,0.626 -4.753,5.912 0.445,9.001 4.605,8.317 5.61,8.151 6.581,7.749 7.568,7.455 7.806,7.22 8.044,6.985 8.282,6.75" /></g><g
           transform="translate(302.0914,399.6947)"
           id="g236"><path
             id="path238"
             style="fill:#edf7f8;fill-opacity:1;fill-rule:nonzero;stroke:none"
             d="M 0,0 C 0.238,-0.235 0.476,-0.47 0.714,-0.705 0.644,0.235 0.564,0.314 0,0" /></g><g
           transform="translate(297.5414,395.2898)"
           id="g240"><path
             id="path242"
             style="fill:#0b0f11;fill-opacity:1;fill-rule:nonzero;stroke:none"
             d="m 0,0 c -1.674,0.01 -2.992,-1.321 -3.018,-3.05 -0.027,-1.792 1.324,-3.235 3.014,-3.222 1.586,0.013 2.935,1.5 2.915,3.213 C 2.891,-1.41 1.559,-0.01 0,0" /></g><g
           transform="translate(218.8734,424.8484)"
           id="g244"><path
             id="path246"
             style="fill:#000000;fill-opacity:1;fill-rule:nonzero;stroke:none"
             d="m 0,0 -18.685,-36.23 h 37.271 z m -20.084,-38.979 -8.313,-16.189 c -0.935,-1.744 -3.642,-0.373 -2.707,1.46 L -1.407,3.658 c 0.281,0.551 0.844,0.827 1.407,0.827 0.555,0 1.027,-0.276 1.308,-0.827 l 29.788,-57.366 c 0.936,-1.833 -1.772,-3.204 -2.707,-1.46 l -8.312,16.189 z" /></g><g
           transform="translate(259.6285,404.5394)"
           id="g248"><path
             id="path250"
             style="fill:#000000;fill-opacity:1;fill-rule:nonzero;stroke:none"
             d="m 0,0 c 2.053,6.951 9.156,11.712 16.906,11.712 1.026,0 1.68,-0.552 1.68,-1.557 0,-1.006 -0.654,-1.558 -1.68,-1.558 C 4.951,8.597 0,-1.371 0,-12.449 v -21.136 c 0,-1.006 -0.745,-1.647 -1.589,-1.647 -1.027,0 -1.681,0.641 -1.681,1.647 v 43.74 c 0,0.819 0.654,1.557 1.681,1.557 0.844,0 1.589,-0.738 1.589,-1.557 z" /></g><g
           transform="translate(317.0898,388.6185)"
           id="g252"><path
             id="path254"
             style="fill:#000000;fill-opacity:1;fill-rule:nonzero;stroke:none"
             d="m 0,0 v 7.957 c -0.373,6.682 -3.551,12.173 -9.719,15.101 -2.707,1.185 -5.415,1.736 -8.312,1.825 -7.94,0.097 -15.97,-4.023 -19.141,-11.614 -1.027,-2.384 -1.59,-5.312 -1.681,-7.965 -0.282,-7.047 2.144,-13.544 8.213,-18.297 3.27,-2.473 7.286,-3.844 11.491,-4.12 3.27,-0.089 6.35,0.641 9.43,2.012 C -3.551,-12.174 -0.373,-6.683 0,0 m -18.031,28.087 c 4.015,-0.089 7.848,-1.006 11.209,-2.928 3.08,-2.011 5.415,-4.85 6.822,-8.508 v 9.238 c 0,1.006 0.555,1.647 1.582,1.647 1.026,0 1.68,-0.641 1.68,-1.647 v -43.821 c 0,-1.006 -0.654,-1.647 -1.68,-1.647 -1.027,0 -1.582,0.641 -1.582,1.647 v 9.238 c -1.407,-3.658 -3.742,-6.497 -6.822,-8.508 -5.886,-3.383 -13.354,-4.21 -20.457,-1.371 -10.084,4.023 -15.126,13.082 -14.844,23.788 0.281,9.238 5.323,17.746 14.198,21.136 3.08,1.282 6.35,1.825 9.894,1.736" /></g><g
           transform="translate(339.8089,373.5171)"
           id="g256"><path
             id="path258"
             style="fill:#000000;fill-opacity:1;fill-rule:nonzero;stroke:none"
             d="m 0,0 c 3.08,-1.371 6.16,-2.101 9.43,-2.012 4.205,0.276 8.221,1.647 11.491,4.12 6.069,4.754 8.495,11.25 8.213,18.298 -0.091,2.652 -0.654,5.58 -1.681,7.964 C 24.282,35.962 16.252,40.082 8.312,39.985 5.415,39.895 2.707,39.344 0,38.16 -6.168,35.232 -9.339,29.741 -9.719,23.058 V 15.101 C -9.339,8.419 -6.168,2.928 0,0 M 18.206,41.453 C 27.081,38.063 32.123,29.555 32.404,20.316 32.686,9.611 27.644,0.551 17.552,-3.472 10.457,-6.31 2.989,-5.483 -2.897,-2.101 c -3.08,2.012 -5.415,4.85 -6.822,8.508 v -9.238 c 0,-1.006 -0.555,-1.647 -1.582,-1.647 -1.034,0 -1.68,0.641 -1.68,1.647 v 43.822 c 0,1.005 0.646,1.646 1.68,1.646 1.027,0 1.582,-0.641 1.582,-1.646 v -9.239 c 1.407,3.658 3.742,6.497 6.822,8.508 3.361,1.923 7.194,2.839 11.209,2.928 3.544,0.09 6.814,-0.454 9.894,-1.735" /></g><g
           transform="translate(420.0982,427.9626)"
           id="g260"><path
             id="path262"
             style="fill:#000000;fill-opacity:1;fill-rule:nonzero;stroke:none"
             d="M 0,0 C 1.589,1.371 3.924,-0.738 2.426,-2.108 L -25.408,-26.262 4.015,-56.368 c 1.681,-1.46 -0.844,-3.471 -2.243,-2.011 l -29.416,30.195 -12.426,-10.795 v -18.394 c 0,-0.82 -0.654,-1.461 -1.589,-1.461 -0.837,0 -1.582,0.641 -1.582,1.461 v 56.181 c 0,0.827 0.745,1.557 1.582,1.557 0.935,0 1.589,-0.73 1.589,-1.557 V -35.41 Z" /></g><path
           id="path264"
           style="fill:none;stroke:#3d55a5;stroke-width:2.41300011;stroke-linecap:butt;stroke-linejoin:miter;stroke-miterlimit:10;stroke-dasharray:none;stroke-opacity:1"
           d="M 438.813,350.908 H 174.015 v 93.702 h 264.798 z" /></g></g></g></svg>